<svg width="30" height="30" viewBox="0 0 30 30" fill="none" xmlns="http://www.w3.org/2000/svg">
<g clip-path="url(#clip0_461_1139)">
<path d="M12.1289 24.9463C13.2211 24.9463 14.1064 24.0609 14.1064 22.9688C14.1064 21.8766 13.2211 20.9912 12.1289 20.9912C11.0367 20.9912 10.1514 21.8766 10.1514 22.9688C10.1514 24.0609 11.0367 24.9463 12.1289 24.9463Z" fill="#D1D1D1"/>
<path d="M26.7773 7.14844H24.6105L17.5955 3.09779C17.6221 2.94797 17.6367 2.79404 17.6367 2.63672C17.6367 1.18283 16.4539 0 15 0C13.5461 0 12.3633 1.18283 12.3633 2.63672C12.3633 2.79404 12.3779 2.94797 12.4045 3.09779L5.38945 7.14844H3.22266C1.44568 7.14844 0 8.59412 0 10.3711V26.7773C0 28.5543 1.44568 30 3.22266 30H26.7773C28.5543 30 30 28.5543 30 26.7773V10.3711C30 8.59412 28.5543 7.14844 26.7773 7.14844ZM15 1.75781C15.4846 1.75781 15.8789 2.15209 15.8789 2.63672C15.8789 3.12135 15.4846 3.51562 15 3.51562C14.5154 3.51562 14.1211 3.12135 14.1211 2.63672C14.1211 2.15209 14.5154 1.75781 15 1.75781ZM13.2727 4.62627C13.7357 5.02887 14.3396 5.27344 15 5.27344C15.6604 5.27344 16.2643 5.02887 16.7273 4.62627L21.0952 7.14844H8.90479L13.2727 4.62627ZM7.72365 11.1893C8.0809 11.1187 8.4276 11.3509 8.4982 11.708L9.1074 14.7878L10.0638 11.6979C10.1123 11.4723 10.2778 11.2787 10.514 11.2059C10.8619 11.0987 11.2308 11.2939 11.338 11.6418L12.307 14.7874L12.9181 11.7169C12.9892 11.3599 13.3362 11.128 13.6932 11.1991C14.0503 11.2702 14.2822 11.6172 14.2111 11.9743L13.1796 17.1573C13.1739 17.1856 13.1664 17.2135 13.1571 17.2409C13.0505 17.5542 12.7566 17.7663 12.4256 17.7685C12.4239 17.7685 12.4221 17.7685 12.4203 17.7685C12.0914 17.7685 11.7972 17.561 11.687 17.2508C11.6839 17.242 11.6809 17.2331 11.6782 17.2242L10.708 14.0749L9.73342 17.2235C9.7316 17.2293 9.72978 17.2351 9.72779 17.2409C9.62121 17.5542 9.32725 17.7663 8.99625 17.7685C8.99455 17.7685 8.99273 17.7685 8.99098 17.7685C8.66209 17.7685 8.36789 17.561 8.25768 17.2508C8.24689 17.2205 8.2384 17.1895 8.23219 17.1581L7.20475 11.9638C7.13426 11.6067 7.36652 11.2599 7.72365 11.1893ZM8.37715 25.2846C8.29031 25.3882 8.19586 25.4856 8.09643 25.5741C7.58918 26.0258 6.93721 26.2646 6.21088 26.2646C4.39354 26.2646 2.91498 24.786 2.91498 22.9687C2.91498 21.1513 4.39354 19.6728 6.21088 19.6728C6.87129 19.6728 7.50867 19.8676 8.05412 20.2361C8.35576 20.4398 8.4351 20.8496 8.23131 21.1513C8.02746 21.4529 7.61771 21.5323 7.31607 21.3285C6.98941 21.1078 6.60721 20.9912 6.21088 20.9912C5.12045 20.9912 4.23334 21.8783 4.23334 22.9687C4.23334 24.0591 5.12045 24.9462 6.21088 24.9462C6.61447 24.9462 6.95391 24.8262 7.21957 24.5896C7.27137 24.5435 7.32094 24.4923 7.36687 24.4376C7.60078 24.1586 8.01656 24.122 8.29553 24.356C8.57455 24.5899 8.61105 25.0057 8.37715 25.2846ZM12.1289 26.2646C10.3116 26.2646 8.83301 24.7861 8.83301 22.9688C8.83301 21.1514 10.3116 19.6729 12.1289 19.6729C13.9462 19.6729 15.4248 21.1514 15.4248 22.9688C15.4248 24.7861 13.9462 26.2646 12.1289 26.2646ZM15.1048 17.1094V11.8359C15.1048 11.4719 15.4 11.1768 15.764 11.1768H17.986C18.35 11.1768 18.6452 11.4719 18.6452 11.8359C18.6452 12.2 18.35 12.4951 17.986 12.4951H16.4232V13.8135H17.8222C18.1862 13.8135 18.4813 14.1086 18.4813 14.4727C18.4813 14.8367 18.1862 15.1318 17.8222 15.1318H16.4232V16.4502H17.986C18.35 16.4502 18.6452 16.7453 18.6452 17.1094C18.6452 17.4734 18.35 17.7686 17.986 17.7686H15.764C15.4 17.7686 15.1048 17.4734 15.1048 17.1094ZM22.1805 26.2117C21.8232 26.2803 21.4777 26.0457 21.4093 25.688L20.8546 22.7854L20.0226 25.7038C20.0204 25.7115 20.0181 25.719 20.0157 25.7265C19.9119 26.0466 19.616 26.2629 19.2795 26.2647C19.2781 26.2647 19.2767 26.2647 19.2753 26.2647C18.9404 26.2647 18.6443 26.052 18.5376 25.7343C18.535 25.7265 18.5326 25.7187 18.5302 25.7109L17.6684 22.7899L17.1465 25.6814C17.0818 26.0397 16.7387 26.2774 16.3808 26.213C16.0225 26.1483 15.7845 25.8055 15.8491 25.4473L16.776 20.3119C16.7765 20.3094 16.777 20.3069 16.7774 20.3044C16.8442 19.9574 17.1371 19.6986 17.4896 19.6749C17.8422 19.6511 18.167 19.8687 18.2795 20.2037C18.2821 20.2114 18.2845 20.2192 18.2868 20.227L19.2664 23.5474L20.2111 20.2337C20.2133 20.2261 20.2156 20.2185 20.218 20.211C20.327 19.875 20.6492 19.6543 21.0022 19.6741C21.3549 19.6941 21.6504 19.9497 21.7209 20.2959C21.7215 20.2985 21.722 20.3011 21.7225 20.3037L22.7042 25.4406C22.7726 25.7981 22.5381 26.1434 22.1805 26.2117ZM22.1521 17.7641C21.5528 17.7674 21.1432 17.7689 20.8609 17.7689C20.2735 17.7689 20.2374 17.7627 20.1905 17.7547C19.8741 17.7005 19.6427 17.4261 19.6427 17.105V11.8359C19.6427 11.4719 19.9378 11.1768 20.3019 11.1768C20.6659 11.1768 20.961 11.4719 20.961 11.8359V16.4501C21.303 16.4497 21.7384 16.448 22.1447 16.4458C22.5082 16.444 22.8056 16.7372 22.8076 17.1013C22.8097 17.4653 22.5162 17.7621 22.1521 17.7641ZM26.262 22.3096C26.626 22.3096 26.9211 22.6047 26.9211 22.9688C26.9211 23.3328 26.626 23.6279 26.262 23.6279H24.863V24.9463H26.4258C26.7898 24.9463 27.085 25.2414 27.085 25.6055C27.085 25.9695 26.7898 26.2646 26.4258 26.2646H24.2038C23.8397 26.2646 23.5446 25.9695 23.5446 25.6055V20.332C23.5446 19.968 23.8397 19.6729 24.2038 19.6729H26.4258C26.7898 19.6729 27.085 19.968 27.085 20.332C27.085 20.6961 26.7898 20.9912 26.4258 20.9912H24.863V22.3096H26.262Z" fill="#D1D1D1"/>
</g>
<defs>
<clipPath id="clip0_461_1139">
<rect width="30" height="30" fill="white"/>
</clipPath>
</defs>
</svg>
